<?xml version="1.0" encoding="UTF-8"?>
<svg xmlns="http://www.w3.org/2000/svg" viewBox="0 0 24 24" width="28" height="28" role="img" aria-label="Facebook">
  <path fill="#0f172a" d="M22.675 0H1.325C.593 0 0 .593 0 1.325v21.35C0 23.407.593 24 1.325 24h11.495v-9.294H9.847V11.01h2.973V8.413c0-2.94 1.796-4.543 4.417-4.543 1.256 0 2.336.093 2.651.135v3.073h-1.82c-1.428 0-1.704.679-1.704 1.676v2.255h3.406l-.444 3.696h-2.962V24h5.807C23.407 24 24 23.407 24 22.675V1.325C24 .593 23.407 0 22.675 0z"/>
</svg>


