<?xml version="1.0" encoding="UTF-8"?>
<svg xmlns="http://www.w3.org/2000/svg" viewBox="0 0 24 24" width="28" height="28" role="img" aria-label="GitHub">
  <path fill="#0f172a" d="M12 0C5.37 0 0 5.37 0 12c0 5.3 3.438 9.8 8.205 11.387.6.111.82-.261.82-.577 0-.285-.011-1.04-.016-2.04-3.338.726-4.042-1.61-4.042-1.61-.546-1.387-1.333-1.757-1.333-1.757-1.089-.745.083-.73.083-.73 1.205.085 1.84 1.237 1.84 1.237 1.07 1.833 2.807 1.303 3.492.996.108-.774.418-1.303.762-1.603-2.665-.304-5.466-1.333-5.466-5.932 0-1.31.469-2.381 1.237-3.221-.124-.303-.536-1.524.117-3.176 0 0 1.008-.322 3.3 1.23a11.5 11.5 0 0 1 3.003-.403c1.018.005 2.044.138 3.003.403 2.29-1.552 3.297-1.23 3.297-1.23.655 1.652.243 2.873.119 3.176.771.84 1.236 1.911 1.236 3.221 0 4.61-2.807 5.625-5.479 5.922.43.372.823 1.103.823 2.222 0 1.606-.015 2.896-.015 3.289 0 .319.218.694.825.576C20.565 21.796 24 17.297 24 12 24 5.37 18.627 0 12 0z"/>
</svg>


