<?xml version="1.0" encoding="UTF-8"?>
<svg xmlns="http://www.w3.org/2000/svg" viewBox="0 0 24 24" width="28" height="28" role="img" aria-label="Instagram">
  <path fill="#0f172a" d="M12 2.2c3.18 0 3.56.012 4.82.07 1.17.054 1.97.24 2.43.4.61.237 1.05.52 1.51.976.456.456.739.9.976 1.51.16.46.347 1.26.4 2.43.058 1.26.07 1.64.07 4.82s-.012 3.56-.07 4.82c-.054 1.17-.24 1.97-.4 2.43-.237.61-.52 1.05-.976 1.51-.456.456-.9.739-1.51.976-.46.16-1.26.347-2.43.4-1.26.058-1.64.07-4.82.07s-3.56-.012-4.82-.07c-1.17-.054-1.97-.24-2.43-.4-.61-.237-1.05-.52-1.51-.976-.456-.456-.739-.9-.976-1.51-.16-.46-.347-1.26-.4-2.43C2.212 15.56 2.2 15.18 2.2 12s.012-3.56.07-4.82c.054-1.17.24-1.97.4-2.43.237-.61.52-1.05.976-1.51.456-.456.9-.739 1.51-.976.46-.16 1.26-.347 2.43-.4C8.44 2.212 8.82 2.2 12 2.2zm0 1.8c-3.12 0-3.49.012-4.72.07-.98.045-1.51.208-1.87.346-.47.182-.8.4-1.15.756-.356.35-.574.68-.756 1.15-.138.36-.3.89-.346 1.87-.058 1.23-.07 1.6-.07 4.72s.012 3.49.07 4.72c.045.98.208 1.51.346 1.87.182.47.4.8.756 1.15.35.356.68.574 1.15.756.36.138.89.3 1.87.346 1.23.058 1.6.07 4.72.07s3.49-.012 4.72-.07c.98-.045 1.51-.208 1.87-.346.47-.182.8-.4 1.15-.756.356-.35.574-.68.756-1.15.138-.36.3-.89.346-1.87.058-1.23.07-1.6.07-4.72s-.012-3.49-.07-4.72c-.045-.98-.208-1.51-.346-1.87-.182-.47-.4-.8-.756-1.15-.35-.356-.68-.574-1.15-.756-.36-.138-.89-.3-1.87-.346-1.23-.058-1.6-.07-4.72-.07zM12 5.9a6.1 6.1 0 1 1 0 12.2A6.1 6.1 0 0 1 12 5.9zm0 1.8a4.3 4.3 0 1 0 0 8.6 4.3 4.3 0 0 0 0-8.6zM18.4 5.6a1.3 1.3 0 1 1 0 2.6 1.3 1.3 0 0 1 0-2.6z"/>
</svg>


