<?xml version="1.0" encoding="UTF-8"?>
<svg xmlns="http://www.w3.org/2000/svg" viewBox="0 0 256 256" width="512" height="512" role="img" aria-label="Django">
  <rect width="256" height="256" rx="28" fill="#092E20"/>
  <path fill="#fff" d="M138 47.5v120.6c0 30.2-14.6 42.3-38.8 42.3-6.9 0-15.9-1.2-21.3-3l3.1-24.7c3.9 1.3 8.8 2.1 14.4 2.1 12.4 0 19.6-5.6 19.6-24.1V47.5H138zm0 0h25.6v84.5c4.4-7.1 12.5-14.8 29.2-14.8 22.9 0 39.2 15.1 39.2 47.5v73.7h-25.6v-69.4c0-17.6-6.2-29.6-21.7-29.6-11.5 0-18.8 7.8-21.8 16.1-1.1 2.7-1.4 6.5-1.4 10.1v72.8H138V47.5z"/>
</svg>


