<?xml version="1.0" encoding="UTF-8"?>
<svg xmlns="http://www.w3.org/2000/svg" viewBox="0 0 128 128" width="512" height="512" role="img" aria-label="JavaScript">
  <path fill="#F7DF1E" d="M19 2h90v124l-45 12-45-12V2z"/>
  <path d="M72.6 99.6c0 10.1-6 14.7-14.8 14.7-7.9 0-12.5-4-14.9-8.8l8.1-4.9c1.6 2.8 3 5.2 6.4 5.2 3.3 0 5.4-1.3 5.4-6.5V58h9.8v41.6zM86.8 105.1c3.2 0 5.3-1.5 6.8-3.6l7.8 5.2c-3.1 4.5-7.6 7.6-14.6 7.6-8.7 0-15.3-4.6-15.3-14.9 0-10 6.5-15.1 14.8-15.1 9.8 0 13.1 6.6 14.8 10.9l-9 3.8c-.8-2.6-2.6-4-5.8-4-3.3 0-5.5 2-5.5 6 0 3.9 2.2 6.1 5.2 6.1z"/>
</svg>


