<?xml version="1.0" encoding="UTF-8"?>
<svg xmlns="http://www.w3.org/2000/svg" viewBox="0 0 256 256" width="512" height="512" role="img" aria-label="MySQL">
  <rect width="256" height="256" rx="28" fill="#005E86"/>
  <path fill="#F29111" d="M76 168c6.2-19.3 23.2-35.3 45-44-2.7-7.4-3.4-15.2-2.6-23 1.2-11.9 6.8-21.9 14.9-28.1 9.3-7.2 21.2-9.2 33.1-6.2 10 2.6 18.8 8.3 24.6 16.1-5.1-2.7-10.8-4.1-16.6-4.1-17.4 0-31.7 12.1-33.5 28.2-.8 7.2.8 14.1 4.5 20.2 11.7 3.1 22.1 8.2 30.5 14.8 12.7 9.9 20.8 22.9 22.2 36.1-8.8-19.7-34.2-35.4-64.2-39.7-28.8-4-58.1 3.8-73.9 30.7z"/>
</svg>


