<?xml version="1.0" encoding="UTF-8"?>
<svg xmlns="http://www.w3.org/2000/svg" viewBox="0 0 128 128" width="512" height="512" role="img" aria-label="Python">
  <defs>
    <linearGradient id="py1" x1="0" y1="0" x2="1" y2="1">
      <stop offset="0%" stop-color="#387EB8"/>
      <stop offset="100%" stop-color="#366994"/>
    </linearGradient>
    <linearGradient id="py2" x1="1" y1="0" x2="0" y2="1">
      <stop offset="0%" stop-color="#FFE050"/>
      <stop offset="100%" stop-color="#FFC331"/>
    </linearGradient>
  </defs>
  <path fill="url(#py1)" d="M63 8c14.6 0 26.5 2.2 26.5 17.2v13.6H49.7c-8.8 0-16 7.3-16 16.1v15.1c0 8.6-7 14.5-15.6 14.5C9.5 84.5 7 77.1 7 68.4V44.2C7 23.8 21.8 8 42.2 8H63zM49.5 19.8a5.6 5.6 0 1 1 0 11.2 5.6 5.6 0 0 1 0-11.2z"/>
  <path fill="url(#py2)" d="M65 120c-14.6 0-26.5-2.2-26.5-17.2V89.2h39.7c8.8 0 16-7.3 16-16.1V58c0-8.6 7-14.5 15.6-14.5 8.6 0 11.1 7.4 11.1 16.1v24.2C121 104.2 106.2 120 85.8 120H65zM78.5 108.2a5.6 5.6 0 1 1 0-11.2 5.6 5.6 0 0 1 0 11.2z"/>
</svg>


