<?xml version="1.0" encoding="UTF-8"?>
<svg xmlns="http://www.w3.org/2000/svg" viewBox="0 0 128 128" width="512" height="512" role="img" aria-label="Symfony">
  <circle cx="64" cy="64" r="60" fill="#000"/>
  <path fill="#fff" d="M83.3 35.6c-6.1-1-11.6 2.8-15.5 8.7-3.3 4.9-5.6 11-7.6 16.9-4.6 1-9.8 2.5-14.7 4.9-9.5 4.7-15.4 12.1-14.1 20.7 1.2 7.8 8.7 11.2 16.9 9.5 7.7-1.6 14.2-7 18.1-13.4 1.6-2.6 3-5.7 4.1-8.9 1.7-.4 3.5-.8 5.2-1.1 7.2-1.5 14.6-2.1 18.6 1.9 1.4 1.4 2 3.2 1.7 5.3-.7 4.9-4.8 9.2-8.2 10.7-1.1.5-1.8 1.7-1.5 2.8.3 1.2 1.5 1.9 2.6 1.7 5.8-1.1 12.2-7.5 13.1-15.1.5-4.7-1-8.6-4-11.6-5.1-5.1-13.6-5.6-22.7-4.2 1.4-4.4 2.6-8.1 4.5-11.4 3.3-5.8 7.6-7.6 11.6-6.3 2.2.7 4.3 2.4 3.8 5.7-.3 2.1-1.5 3.8-2.6 4.8-1 .9-1.1 2.4-.2 3.4.9 1 2.4 1.1 3.4.2 2.2-2 4.1-4.9 4.6-8.6 1.1-7.7-4.6-11.5-11.3-12.6zM46.8 72.5c-2.8 4.6-7.6 9.1-12.7 10.2-5.1 1.1-9.1-1.1-9.7-5.1-.7-4.6 3.6-9.3 10.2-12.6 3.7-1.9 7.3-3 11-3.8-1.2 3.7-2.4 7.5-3.8 11.3z"/>
</svg>


